<?xml version="1.0" standalone="no"?>
<!DOCTYPE svg PUBLIC "-//W3C//DTD SVG 20010904//EN"
 "http://www.w3.org/TR/2001/REC-SVG-20010904/DTD/svg10.dtd">
<svg version="1.0" xmlns="http://www.w3.org/2000/svg"
 width="200.000000pt" height="200.000000pt" viewBox="0 0 200.000000 200.000000"
 preserveAspectRatio="xMidYMid meet">
<metadata>
Created by potrace 1.14, written by Peter Selinger 2001-2017
</metadata>
<g transform="translate(0.000000,200.000000) scale(0.100000,-0.100000)"
fill="#000000" stroke="none">
<path d="M559 1709 c-59 -9 -84 -22 -120 -64 -16 -18 -40 -36 -53 -39 -45 -11
-68 -59 -72 -148 -2 -68 -6 -83 -23 -95 -35 -24 -28 -77 19 -139 22 -29 40
-62 40 -73 0 -24 17 -66 42 -103 l18 -26 -41 -7 c-23 -4 -55 -19 -72 -34 -25
-23 -31 -37 -35 -82 -4 -54 -4 -55 -51 -74 -58 -24 -149 -114 -182 -180 -20
-41 -25 -69 -27 -152 l-4 -101 87 2 c49 1 90 -3 94 -9 4 -5 6 -29 5 -53 -1
-31 3 -45 15 -50 12 -6 1715 -8 1789 -3 10 1 12 131 10 634 l-3 632 -511 0
-510 0 -32 36 c-29 33 -30 38 -20 73 15 48 2 62 -38 41 -33 -17 -62 -19 -97
-6 -14 6 -51 13 -84 16 -32 4 -67 8 -78 9 -11 1 -41 -1 -66 -5z m125 -44 c33
-3 76 -12 96 -19 20 -7 46 -12 58 -11 27 2 27 0 1 -28 l-20 -22 36 -6 c58 -10
70 -29 70 -109 -1 -82 -11 -97 -53 -82 -45 15 -179 7 -201 -12 -19 -17 -51
-22 -51 -7 0 24 -145 39 -201 21 -49 -16 -65 -5 -62 47 1 21 2 51 2 66 1 35
42 77 74 77 18 0 27 7 31 24 8 31 48 56 105 65 25 4 48 7 51 5 3 -1 32 -5 64
-9z m1277 -177 c0 -23 1 -162 0 -210 l-1 -48 -491 0 c-270 0 -489 3 -487 8 43
83 44 125 1 145 -14 6 -22 16 -18 25 3 7 5 31 5 53 l0 39 495 0 c389 0 495 -3
496 -12z m-1375 -151 c9 -8 -14 -63 -33 -78 -17 -15 -91 -13 -109 2 -14 11
-19 70 -8 82 8 8 141 3 150 -6z m257 1 c14 -11 15 -19 6 -50 -6 -24 -16 -38
-27 -39 -9 0 -27 -2 -40 -5 -13 -2 -32 1 -42 6 -19 10 -50 59 -50 79 0 19 128
27 153 9z m-472 -8 c1 -5 2 -13 3 -17 1 -5 5 -25 10 -46 6 -31 14 -41 41 -53
41 -17 105 -18 139 -3 13 6 35 31 48 55 13 24 25 44 28 44 4 0 16 -20 28 -45
26 -54 56 -68 130 -63 63 6 79 19 96 84 12 49 29 63 61 50 21 -7 2 -56 -35
-91 -20 -19 -30 -39 -30 -57 0 -100 -123 -224 -234 -235 -109 -11 -227 82
-258 203 -6 27 -24 63 -39 79 -35 39 -52 73 -45 91 6 16 55 19 57 4z m1584
-152 c5 -5 10 -688 6 -833 -1 -20 -8 -20 -866 -20 l-865 0 0 31 c0 22 5 33 18
36 9 2 245 3 525 2 l507 -1 0 62 c0 103 -37 210 -98 280 -28 33 -105 91 -137
104 -27 10 -30 16 -27 45 8 69 -47 132 -121 138 l-25 2 23 41 c13 22 29 58 35
80 l12 40 503 0 c277 0 506 -3 510 -7z m-1525 -221 c0 -52 33 -132 69 -168 36
-36 36 -37 19 -59 -18 -22 -19 -22 -62 -6 -83 32 -156 115 -156 178 0 40 48
76 103 77 22 1 27 -3 27 -22z m522 -7 c48 -59 -9 -167 -115 -219 l-42 -21 -23
26 -24 26 25 26 c36 39 55 82 63 142 l7 52 46 -5 c30 -3 51 -12 63 -27z m-317
-43 c34 -1 68 7 108 25 l57 27 -6 -27 c-20 -80 -57 -125 -119 -142 -85 -24
-160 20 -185 108 -16 59 -13 61 42 34 33 -16 71 -25 103 -25z m-196 -228 c54
-21 61 -27 61 -51 0 -16 -11 -38 -25 -52 -32 -32 -32 -60 0 -91 31 -32 59 -32
90 0 32 31 32 59 0 91 -34 34 -33 106 1 133 27 21 133 23 157 3 29 -24 30 -61
2 -93 -31 -38 -32 -63 0 -94 31 -32 59 -32 91 1 30 29 27 67 -8 96 -25 22 -18
43 18 52 36 9 105 58 137 96 32 37 42 37 98 2 92 -59 157 -164 166 -273 6 -58
6 -59 -21 -60 -14 0 -262 0 -551 0 -289 0 -545 0 -570 0 l-45 1 0 38 c0 119
82 252 189 306 l44 23 53 -52 c36 -36 71 -60 113 -76z m355 -98 c3 -5 -1 -15
-10 -22 -13 -10 -17 -10 -24 1 -5 8 -6 18 -4 22 7 11 31 10 38 -1z m-254 -45
c0 -20 -19 -31 -32 -18 -6 6 -7 15 -4 21 10 16 36 13 36 -3z"/>
<path d="M1372 1417 c-31 -33 -29 -80 4 -106 36 -29 60 -26 95 9 24 23 28 34
23 57 -14 60 -83 82 -122 40z m76 -50 c2 -9 -4 -20 -12 -23 -21 -8 -46 13 -39
32 8 20 47 13 51 -9z"/>
<path d="M1575 1415 c-14 -13 -25 -36 -25 -50 0 -32 41 -75 72 -75 34 1 67 30
74 67 5 26 1 37 -19 57 -33 33 -71 33 -102 1z m72 -59 c-8 -20 -36 -21 -43 -1
-4 8 0 22 7 31 11 13 14 13 27 0 8 -8 12 -22 9 -30z"/>
<path d="M1775 1415 c-14 -13 -25 -36 -25 -50 0 -32 41 -75 72 -75 34 1 67 30
74 67 5 26 1 37 -19 57 -33 33 -71 33 -102 1z m70 -50 c0 -30 -39 -27 -43 3
-3 20 0 23 20 20 15 -2 23 -10 23 -23z"/>
<path d="M1029 1037 c0 -1 -2 -12 -5 -24 l-4 -23 248 0 c137 0 251 3 254 6 3
3 4 13 1 23 -4 17 -22 18 -249 19 -134 0 -244 -1 -245 -1z"/>
<path d="M1575 1018 c1 -19 8 -24 37 -26 26 -2 37 2 42 13 10 26 -2 35 -43 35
-33 0 -37 -3 -36 -22z"/>
<path d="M1709 1036 c0 -1 -2 -11 -5 -23 -4 -22 -1 -23 75 -23 63 0 80 3 85
16 11 28 -3 33 -79 32 -41 -1 -75 -2 -76 -2z"/>
<path d="M1238 848 c-8 -21 2 -38 21 -38 24 0 30 8 24 31 -6 21 -38 26 -45 7z"/>
<path d="M1336 851 c-10 -16 5 -41 25 -41 14 0 19 7 19 25 0 18 -5 25 -19 25
-11 0 -22 -4 -25 -9z"/>
<path d="M1439 858 c-1 -2 -3 -13 -4 -25 -2 -22 1 -23 75 -23 53 0 79 4 82 13
12 30 -4 37 -78 37 -41 0 -75 -1 -75 -2z"/>
<path d="M1645 838 c2 -22 5 -23 111 -23 105 0 109 1 112 23 3 22 2 22 -111
22 -112 0 -114 0 -112 -22z"/>
<path d="M1390 657 c0 -22 4 -23 57 -23 51 1 56 3 58 24 2 20 -2 22 -57 22
-54 0 -58 -2 -58 -23z"/>
<path d="M1550 656 c0 -21 4 -25 25 -24 34 3 31 41 -2 46 -19 3 -23 -1 -23
-22z"/>
<path d="M1650 657 c0 -18 5 -25 18 -23 9 2 17 11 17 22 0 10 -8 20 -17 22
-13 3 -18 -3 -18 -21z"/>
<path d="M1730 657 c0 -23 3 -24 68 -23 62 1 67 3 70 24 3 21 0 22 -67 22 -68
0 -71 -1 -71 -23z"/>
<path d="M1483 502 c-85 -2 -93 -4 -93 -22 0 -24 -8 -22 107 -24 94 -2 115 6
90 36 -9 9 -37 12 -104 10z"/>
<path d="M1640 481 c0 -24 13 -33 34 -25 27 10 20 44 -9 44 -18 0 -25 -5 -25
-19z"/>
<path d="M1730 477 c0 -21 4 -23 70 -23 66 0 70 2 70 23 0 22 -4 23 -70 23
-66 0 -70 -1 -70 -23z"/>
</g>
</svg>
